<svg width="34" height="34" viewBox="0 0 34 34" fill="none" xmlns="http://www.w3.org/2000/svg">
<path fill-rule="evenodd" clip-rule="evenodd" d="M2.83329 1.41669H1.41663V12.75H4.24996V4.25002H12.75V1.41669H2.83329ZM7.08329 14.1667V15.5834H15.5833V7.08335H7.08329V14.1667ZM12.75 12.75H9.91663V9.91669H12.75V12.75ZM18.4166 14.1667V15.5834H26.9166V7.08335H18.4166V14.1667ZM24.0833 12.75H21.25V9.91669H24.0833V12.75ZM7.08329 26.9167V18.4167H15.5833V26.9167H7.08329ZM9.91663 24.0834H12.75V21.25H9.91663V24.0834ZM1.41663 32.5834H12.75V29.75H4.24996V21.25H1.41663V32.5834ZM32.5833 2.83335V1.41669H21.25V4.25002H29.75V12.75H32.5833V2.83335ZM32.5833 32.5834V21.25H29.75V29.75H21.25V32.5834H32.5833ZM18.4166 24.7917V26.9167H26.9166V24.0834H21.25V18.4167H18.4166V24.7917ZM24.0833 18.4167V21.25H26.9166V18.4167H24.0833Z" fill="#DA2020"/>
</svg>
